<?xml version="1.0" encoding="UTF-8" standalone="no"?>
<!-- Created with Inkscape (http://www.inkscape.org/) -->

<svg
   xmlns:dc="http://purl.org/dc/elements/1.1/"
   xmlns:cc="http://creativecommons.org/ns#"
   xmlns:rdf="http://www.w3.org/1999/02/22-rdf-syntax-ns#"
   xmlns:svg="http://www.w3.org/2000/svg"
   xmlns="http://www.w3.org/2000/svg"
   xmlns:sodipodi="http://sodipodi.sourceforge.net/DTD/sodipodi-0.dtd"
   xmlns:inkscape="http://www.inkscape.org/namespaces/inkscape"
   width="196.75778mm"
   height="277.28448mm"
   viewBox="0 0 697.17324 982.50408"
   id="svg6226"
   version="1.1"
   inkscape:version="0.91 r13725"
   sodipodi:docname="shiva-lingam.svg">
  <defs
     id="defs6228" />
  <sodipodi:namedview
     id="base"
     pagecolor="#ffffff"
     bordercolor="#666666"
     borderopacity="1.0"
     inkscape:pageopacity="0.0"
     inkscape:pageshadow="2"
     inkscape:zoom="0.35"
     inkscape:cx="-953.74412"
     inkscape:cy="492.53222"
     inkscape:document-units="px"
     inkscape:current-layer="layer1"
     showgrid="false"
     inkscape:window-width="1920"
     inkscape:window-height="1018"
     inkscape:window-x="-8"
     inkscape:window-y="-8"
     inkscape:window-maximized="1"
     fit-margin-top="0"
     fit-margin-left="0"
     fit-margin-right="0"
     fit-margin-bottom="0" />
  <metadata
     id="metadata6231">
    <rdf:RDF>
      <cc:Work
         rdf:about="">
        <dc:format>image/svg+xml</dc:format>
        <dc:type
           rdf:resource="http://purl.org/dc/dcmitype/StillImage" />
        <dc:title></dc:title>
      </cc:Work>
    </rdf:RDF>
  </metadata>
  <g
     inkscape:label="Layer 1"
     inkscape:groupmode="layer"
     id="layer1"
     transform="translate(-21.601267,-42.390384)">
    <g
       id="g4771"
       transform="matrix(2.321173,0,0,2.321173,-1388.4763,-722.28906)">
      <path
         style="fill-opacity:1"
         d="m 629.23323,751.58404 c -1.66217,-0.63534 -4.75297,-2.27959 -6.86846,-3.65388 -3.94538,-2.56304 -15.2882,-12.159 -14.86852,-12.57867 0.12864,-0.12865 2.98351,1.64572 6.34416,3.94304 8.92211,6.09907 8.85688,6.07208 14.49789,6.00033 3.88062,-0.0494 5.16219,-0.27672 6.28503,-1.11505 3.18006,-2.37426 4.46823,-5.74844 3.7191,-9.74164 -0.44759,-2.38589 -2.12563,-2.98694 -5.68288,-2.03552 -2.17244,0.58104 -2.57887,0.52745 -4.15352,-0.54767 -2.07024,-1.41348 -7.51495,-6.58852 -7.51495,-7.14272 0,-0.21297 0.76637,-0.55555 1.70305,-0.76127 2.35729,-0.51775 5.98962,-4.35548 5.98962,-6.32831 0,-2.99265 -0.38982,-3.27147 -2.76104,-1.97489 -1.17885,0.6446 -2.44161,1.72834 -2.80613,2.40832 -0.36453,0.67997 -0.96922,1.23632 -1.34377,1.23632 -0.92123,0 -6.6704,-4.72684 -7.39427,-6.07941 -1.1381,-2.12656 2.33913,-5.08102 6.76039,-5.74403 2.06086,-0.30904 2.80146,-0.14861 4.58903,0.99407 3.39613,2.17096 8.83682,7.95057 9.89678,10.5133 l 0.97278,2.35196 3.04193,-1.39265 c 2.51784,-1.1527 3.89518,-1.39704 7.99423,-1.41817 4.63086,-0.0239 5.18276,0.0985 8.5029,1.88576 5.22851,2.81451 11.19146,8.67464 13.2802,13.05119 1.4291,2.99442 1.66151,4.03913 1.45432,6.5375 -0.14855,1.79136 -0.68507,3.56523 -1.3495,4.46182 -1.69276,2.28423 -5.47239,4.96394 -7.93781,5.6278 -2.57308,0.69286 -3.43516,0.27505 -7.73903,-3.75071 -2.64575,-2.47479 -2.90316,-3.41094 -0.9379,-3.41094 1.26463,0 8.49001,-3.53791 9.03878,-4.42585 0.68905,-1.1149 0.28676,-7.65807 -0.57306,-9.32079 -1.25626,-2.42932 -4.66911,-3.97398 -7.8591,-3.55703 -3.32743,0.43491 -6.93068,1.74226 -9.777,3.54734 l -2.26617,1.43717 1.83719,2.17587 c 4.68193,5.54503 4.65768,14.01685 -0.0513,17.93569 -2.73019,2.27205 -9.29228,2.67998 -14.02294,0.87172 z m 70.05725,-2.20611 c -0.90608,-0.6298 -2.6983,-2.14471 -3.9827,-3.36648 l -2.33528,-2.22139 0,-6.20457 0,-6.20458 -4.03287,0 c -3.77178,0 -4.07352,0.0892 -4.66067,1.37788 -0.90848,1.99387 -3.97524,3.32566 -6.1933,2.68953 -3.3038,-0.94752 -6.77067,-7.08286 -5.42407,-9.59901 0.81504,-1.52291 2.02322,-1.69628 11.38192,-1.63328 l 8.92899,0.0601 0,-7.37282 0,-7.37282 -8.21174,0.0241 c -8.15921,0.0239 -8.22512,0.0142 -10.30268,-1.52251 -2.74088,-2.02734 -5.66254,-4.77651 -5.66254,-5.32823 0,-0.241 18.44016,-0.50158 40.97814,-0.57905 l 40.97814,-0.14087 1.03573,-2.94116 c 1.86894,-5.30723 6.34774,-11.17248 9.95653,-13.03866 1.06122,-0.54877 3.6471,-1.03793 6.3405,-1.19938 3.784,-0.22683 5.54223,-0.0159 10.46208,1.25496 3.25253,0.84018 7.19598,2.10875 8.76323,2.81905 1.56725,0.71029 2.99422,1.29144 3.17105,1.29144 0.17683,0 1.98534,0.79248 4.01891,1.76107 3.13686,1.49408 7.12258,3.95881 15.0768,9.32333 1.41294,0.95292 3.8696,1.00409 48.20966,1.00409 l 46.72087,0 1.35865,2.15225 c 0.74726,1.18374 1.51897,2.79096 1.71489,3.5716 0.39669,1.5805 0.58517,1.50935 -4.43345,1.67364 -1.81327,0.0594 -3.96997,0.15006 -4.79265,0.20155 l -1.4958,0.0936 0.0676,19.78987 c 0.0372,10.88443 -0.0698,19.92726 -0.23773,20.0952 -0.44706,0.44706 -7.18777,-5.38953 -7.79895,-6.75291 -0.48122,-1.07344 -0.82643,-1.13824 -4.55997,-0.85587 -6.03055,0.45609 -9.25291,-0.50943 -13.51946,-4.05084 -1.94044,-1.61065 -3.66109,-3.27504 -3.82363,-3.69864 -0.16255,-0.42359 0.0668,-1.82176 0.50956,-3.10702 0.44281,-1.28526 1.05741,-4.21968 1.36577,-6.52092 0.55767,-4.16169 0.68139,-14.14862 0.18523,-14.95143 -0.14298,-0.23135 -1.24504,-0.38173 -2.44901,-0.33418 l -2.18905,0.0865 0,20.20603 c 0,11.11332 -0.14987,20.20603 -0.33304,20.20603 -0.3991,0 -4.17263,-2.92498 -6.70331,-5.19594 -1.79954,-1.61485 -1.8157,-1.67324 -1.7495,-6.32176 0.0368,-2.58053 0.0505,-10.201 0.0305,-16.93439 l -0.0363,-12.24253 -3.29686,0.0989 -3.29686,0.0989 0,19.97364 c 0,10.98551 -0.16042,19.97365 -0.35648,19.97365 -0.19607,0 -1.66099,-1.07394 -3.25538,-2.38653 l -2.8989,-2.38654 -6.43762,-0.36767 -6.43761,-0.36769 -3.38509,-2.41554 c -3.81186,-2.72009 -7.23987,-6.28735 -8.02412,-8.35009 -0.82123,-2.15999 -0.62025,-7.21954 0.36412,-9.16652 1.45018,-2.86829 3.47684,-5.30156 5.8437,-7.0161 2.18466,-1.58256 2.3478,-1.61087 9.28449,-1.61087 l 7.06075,0 0,-2.89823 0,-2.89823 -12.37622,-0.0548 -12.37622,-0.0548 0.15037,20.21171 0.15036,20.21172 -1.54557,-0.91181 c -0.85006,-0.50148 -2.76636,-2.03942 -4.25844,-3.41763 l -2.71287,-2.50584 -0.0452,-12.8795 c -0.0502,-14.32225 -0.22729,-19.40467 -0.70285,-20.17414 -0.17581,-0.28447 -3.65662,-0.51569 -7.73512,-0.51383 l -7.41547,0.003 1.63208,2.06067 c 3.71848,4.69496 4.89852,11.0846 3.02684,16.38954 -0.69886,1.98076 -3.96122,7.83069 -5.93466,10.64177 -0.58406,0.83198 -0.0308,1.59973 4.25635,5.90688 5.59844,5.62449 5.20447,6.82312 -0.5335,1.62315 -4.61029,-4.17804 -5.94492,-4.74997 -7.48663,-3.20825 -2.42755,2.42755 -7.3362,3.40238 -10.69742,2.12444 -3.58997,-1.3649 -7.37858,-5.92876 -7.37524,-8.88439 0.003,-2.43501 1.67699,-5.03831 3.8079,-5.92095 1.81576,-0.75211 3.91885,-0.39537 8.071,1.36908 1.65126,0.7017 1.79076,0.65212 3.71797,-1.32152 3.10319,-3.17796 5.37774,-9.99095 4.97395,-14.8985 -0.46504,-5.65177 -0.572,-5.85738 -2.99611,-5.75969 -4.51923,0.18211 -4.31286,0.0554 -3.99154,2.45101 0.26,1.93846 0.0919,2.37415 -1.48408,3.84634 -1.14425,1.06891 -2.35347,1.66027 -3.39491,1.66027 -3.40323,0 -7.0578,-3.16812 -7.0578,-6.11834 0,-1.72749 0.22043,-1.65242 -5.49476,-1.87121 -6.01444,-0.23025 -5.42961,-2.40774 -5.41067,20.14557 0.009,10.88783 -0.12293,19.93562 -0.29351,20.1062 -0.35253,0.35252 -3.58977,-1.94379 -6.24694,-4.43121 l -1.7858,-1.67171 0,-17.11698 0,-17.11697 -8.10477,0.0507 -8.10478,0.0507 0.1505,20.1962 c 0.12436,16.68837 0.0213,20.19621 -0.5932,20.19621 -0.40905,0 -2.26944,-1.3807 -4.13422,-3.06822 l -3.39049,-3.06823 0,-5.99814 c 0,-6.82422 0.6302,-6.16854 -5.76951,-6.00272 -1.81327,0.047 -3.38101,0.3197 -3.48387,0.60604 -0.7444,2.07229 -7.28319,2.80812 -10.51683,1.18349 -3.97493,-1.99708 -5.6612,-7.18518 -3.30781,-10.17703 0.95531,-1.21447 1.09896,-2.22911 1.09896,-7.76215 l 0,-6.36506 -1.73683,0.19014 -1.73683,0.19014 -0.23056,20.27167 c -0.12682,11.14942 -0.27294,20.31404 -0.32471,20.36582 -0.0518,0.0518 -0.8355,-0.42114 -1.74158,-1.05094 z m 139.77409,-12.2962 1.71712,-0.34342 0,-7.15382 0,-7.15382 -4.05672,0.30681 c -4.74042,0.35851 -7.18652,1.67433 -9.3686,5.03959 -2.28684,3.52683 -1.78482,7.16455 1.21328,8.79156 1.55665,0.84476 7.40658,1.13077 10.49492,0.5131 z m 45.67524,-2.57094 3.5716,-0.66515 0.14758,-12.11054 0.14758,-12.11054 -5.82445,0.006 -5.82445,0.006 0.32686,2.21753 c 0.45862,3.11145 0.49038,18.94717 0.0415,20.70919 -0.27901,1.0953 -0.12073,1.60362 0.63643,2.04383 1.27669,0.74226 2.35312,0.72684 6.77731,-0.0971 z m -157.69993,-17.55364 -1.6e-4,-7.28056 -6.31882,-0.0233 -6.31881,-0.0233 0,7.30385 0,7.30386 6.31898,0 6.31898,0 -1.7e-4,-7.28057 z m 79.36761,-15.41058 c -1.20458,-0.7773 -6.80856,-3.36322 -12.73772,-5.87775 -7.71028,-3.26989 -16.86867,-4.74185 -21.92131,-3.52326 -4.77747,1.15222 -8.52127,4.23988 -10.29931,8.49424 l -0.79139,1.8936 23.40838,-0.14914 c 19.00013,-0.12106 23.20745,-0.27881 22.34135,-0.83769 z m -65.08707,30.79593 c -1.35912,-2.22911 -1.35851,-2.67366 0.006,-4.40838 1.16981,-1.48717 1.45961,-3.14693 0.54948,-3.14693 -0.85617,0 -0.6485,-4.17907 0.24449,-4.92018 1.37991,-1.14523 3.25586,-0.44258 4.27609,1.60162 0.84625,1.6956 0.86113,2.03558 0.13737,3.14016 -0.93449,1.42622 -1.06237,3.25544 -0.26214,3.75 0.83516,0.51616 0.65638,3.17444 -0.3059,4.54829 -1.28459,1.83401 -3.33489,1.58483 -4.64541,-0.56458 z M 634.01774,712.2866 c -4.258,-2.90615 -6.46822,-4.98301 -9.11303,-8.56316 -1.46417,-1.98197 -2.01567,-3.11321 -1.51775,-3.11321 0.73279,0 5.86029,4.22241 7.33985,6.04424 0.56004,0.68958 0.67223,0.54692 0.68685,-0.87339 0.0131,-1.27671 0.36447,-1.85569 1.41702,-2.33527 2.09711,-0.95551 3.56098,-0.77276 6.28596,0.78473 l 2.46547,1.40917 1.51823,-1.6992 c 0.83503,-0.93455 1.51823,-2.06619 1.51823,-2.51474 0,-0.44855 0.33514,-0.81554 0.74475,-0.81554 0.9137,0 8.04687,6.45875 8.04687,7.28606 0,0.32724 -1.07702,1.62696 -2.39338,2.88825 -2.71627,2.60265 -5.60136,3.5626 -10.7072,3.5626 -2.87892,0 -3.63622,-0.24801 -6.29187,-2.06054 z"
         id="path4777"
         inkscape:connector-curvature="0" />
      <path
         style="fill-opacity:1"
         d="m 629.33682,751.43762 c -4.71874,-1.83634 -11.56836,-6.52135 -16.86263,-11.53371 l -4.39581,-4.16175 6.94755,4.64101 c 6.00222,4.00953 7.3726,4.69412 10.07136,5.03131 8.82139,1.10216 13.78487,-2.29837 13.55358,-9.28568 -0.12566,-3.79637 -0.95082,-4.39047 -5.53426,-3.98456 -3.24171,0.28708 -3.69696,0.18981 -5.49477,-1.17408 -2.78701,-2.11432 -6.63076,-5.69925 -6.63076,-6.18426 0,-0.22595 0.7869,-0.56819 1.74867,-0.76054 1.04101,-0.20821 2.66318,-1.30418 4.0085,-2.70824 2.04443,-2.13368 2.23889,-2.5783 2.03996,-4.66424 -0.12094,-1.26816 -0.44609,-2.30574 -0.72257,-2.30574 -0.88843,0 -4.91865,2.76694 -5.23643,3.59506 -0.169,0.44041 -0.75542,0.80075 -1.30316,0.80075 -1.32446,0 -7.12869,-5.3442 -7.12869,-6.56369 0,-1.75388 3.58296,-4.01858 7.25217,-4.58391 1.67535,-0.25812 2.44715,-0.0189 4.39581,1.36233 3.97333,2.81639 7.60319,6.62306 9.06879,9.51053 0.76697,1.51107 1.45245,2.81448 1.52327,2.89648 0.0708,0.082 1.46286,-0.47193 3.09339,-1.23096 2.43912,-1.13542 3.80375,-1.38099 7.69871,-1.38541 4.35376,-0.005 5.05595,0.15565 8.74044,1.99893 7.15199,3.57799 13.43225,10.94465 14.61486,17.14302 0.752,3.94142 -2.20661,8.66187 -6.94359,11.0785 -3.365,1.7167 -4.80216,1.43801 -8.65317,-1.67798 -1.88445,-1.52478 -3.42627,-2.95034 -3.42627,-3.16789 0,-0.21756 1.28438,-0.85173 2.85418,-1.40928 4.02049,-1.42794 6.9814,-3.42813 7.65543,-5.17146 1.4037,-3.63061 -0.92931,-11.09251 -3.47136,-11.10278 -0.51103,-0.002 -1.10122,-0.28216 -1.31152,-0.62243 -0.25078,-0.40578 -1.60756,-0.52032 -3.94295,-0.33285 -2.77203,0.22251 -4.57944,0.81208 -8.16103,2.6621 l -4.60044,2.37629 1.8567,1.94028 c 2.65568,2.7752 3.56795,4.91072 3.92099,9.17852 0.28822,3.48416 0.19479,3.93085 -1.31205,6.27312 -1.94475,3.02297 -4.07124,4.11309 -8.8733,4.54877 -2.98691,0.271 -4.13932,0.10311 -7.0396,-1.02556 z m 69.13045,-2.85723 c -1.05774,-0.8088 -2.72678,-2.32072 -3.70897,-3.35983 l -1.7858,-1.88929 0,-5.9283 0,-5.92829 -3.70896,-0.18425 c -3.67154,-0.1824 -3.72921,-0.16314 -5.71518,1.90861 -1.85592,1.93608 -2.2058,2.08015 -4.67055,1.92317 -2.50837,-0.15976 -2.76888,-0.32613 -4.45014,-2.84181 -2.13031,-3.18762 -2.45525,-6.54678 -0.72297,-7.47387 0.60994,-0.32643 4.94153,-0.56881 10.16532,-0.56881 l 9.10248,0 0,-7.41793 0,-7.41794 -8.10477,-0.002 c -6.98487,-0.002 -8.33256,-0.14503 -9.75321,-1.03677 -2.39162,-1.5012 -6.08293,-5.17568 -5.42103,-5.39631 0.31106,-0.10369 18.67765,-0.24361 40.81464,-0.31093 l 40.24907,-0.12241 1.59989,-4.14373 c 1.94909,-5.04816 5.96057,-10.24933 9.14891,-11.86222 3.60821,-1.82529 9.36087,-2.14 14.88634,-0.8144 5.7634,1.38269 9.95549,2.75379 11.34976,3.71214 0.59611,0.40974 1.40492,0.74498 1.79736,0.74498 1.39885,0 8.20512,3.5989 14.2567,7.53841 3.38161,2.2014 6.7938,4.24792 7.58264,4.54784 0.89964,0.34204 15.70983,0.54295 39.7329,0.539 21.06427,-0.003 41.76036,0.001 45.99133,0.01 l 7.69267,0.0163 1.14614,1.779 c 0.63037,0.97845 1.31506,2.45897 1.52153,3.29006 l 0.37539,1.51105 -5.50524,0 -5.50523,0 0,20.0559 c 0,11.03074 -0.19615,20.05589 -0.43589,20.05589 -0.80679,0 -6.96442,-5.51271 -7.36392,-6.59266 -0.36038,-0.97419 -0.77609,-1.04054 -4.67738,-0.74652 -6.25476,0.47139 -9.56138,-0.63443 -13.94047,-4.66208 l -3.43507,-3.15939 1.17549,-4.64552 c 1.18069,-4.66612 1.52441,-8.92972 1.31583,-16.32191 l -0.11241,-3.98371 -2.74739,0 -2.74738,0 0,20.0559 c 0,11.03074 -0.20512,20.05589 -0.45584,20.05589 -0.25071,0 -1.98156,-1.3807 -3.84634,-3.06822 l -3.39049,-3.06823 0,-16.98767 0,-16.98767 -3.5716,0 -3.5716,0 0,19.78116 c 0,15.6016 -0.14711,19.78115 -0.69628,19.78115 -0.38295,0 -1.96825,-1.11269 -3.52289,-2.47264 l -2.8266,-2.47265 -5.28639,0 c -3.50558,0 -5.96522,-0.28364 -7.30156,-0.84199 -2.84172,-1.18735 -7.74623,-5.08722 -9.58292,-7.61997 -1.39098,-1.91813 -1.55404,-2.59443 -1.55404,-6.44568 0,-3.9871 0.14257,-4.52557 1.9438,-7.34134 1.06909,-1.67126 2.97104,-3.71599 4.22656,-4.54385 2.22964,-1.47018 2.4451,-1.5013 9.25982,-1.3371 l 6.97707,0.16811 0.19801,-2.09128 c 0.10891,-1.1502 0.119,-2.64762 0.0224,-3.3276 l -0.17558,-1.23632 -12.60302,0 -12.60303,0 0.36392,20.1377 0.36392,20.13771 -1.73877,-1.02712 c -0.95632,-0.56491 -2.73643,-2.04367 -3.95581,-3.28612 l -2.21704,-2.259 -0.20486,-7.09838 c -0.11267,-3.9041 -0.22569,-11.48731 -0.25116,-16.85158 l -0.0463,-9.75321 -7.96741,0 c -4.38208,0 -7.96741,0.15548 -7.96741,0.34551 0,0.19003 0.85554,1.2925 1.90121,2.44993 2.50759,2.77561 3.82864,7.28477 3.42815,11.7014 -0.22697,2.50315 -0.93279,4.52488 -2.89123,8.28165 -1.42502,2.73354 -3.03415,5.53822 -3.57584,6.23263 -0.98194,1.25878 -0.97255,1.2744 3.13965,5.22003 4.33137,4.15591 6.10715,6.43804 4.22126,5.42489 -0.55175,-0.29641 -2.70889,-2.04597 -4.79366,-3.88792 -3.92297,-3.46607 -5.18628,-3.95691 -6.4049,-2.48856 -1.35018,1.62687 -3.7535,2.43642 -7.23303,2.43642 -4.06436,0 -6.56964,-1.37212 -9.24267,-5.06213 -1.79002,-2.47106 -2.05034,-4.61376 -0.84395,-6.94667 1.51017,-2.92035 4.6595,-3.48464 9.65705,-1.73031 2.90938,1.02129 3.07337,1.02426 4.39581,0.0795 0.75553,-0.53975 2.36104,-2.94152 3.56781,-5.33726 1.9805,-3.93179 2.20039,-4.78387 2.25851,-8.7517 0.0354,-2.41769 -0.15852,-5.21145 -0.43096,-6.20835 -0.49432,-1.80876 -0.50192,-1.81221 -3.6322,-1.64843 l -3.13685,0.16411 -0.0258,2.67943 c -0.0204,2.1189 -0.29175,2.8948 -1.2972,3.70896 -1.58953,1.28713 -5.89357,1.38421 -7.62427,0.17197 -1.56274,-1.09458 -3.03696,-3.92602 -2.70503,-5.19536 0.32113,-1.22798 -1.46143,-1.63974 -7.09862,-1.63974 l -4.05239,0 0,20.33063 c 0,11.18185 -0.19074,20.33064 -0.42387,20.33064 -0.23314,0 -2.0258,-1.45066 -3.98371,-3.22368 l -3.55983,-3.22367 -0.0951,-16.42011 c -0.0523,-9.03107 -0.11412,-16.7292 -0.13737,-17.10696 -0.0318,-0.51688 -2.06991,-0.68685 -8.23623,-0.68685 l -8.19397,0 -5.1e-4,20.09981 c -2.9e-4,11.0549 -0.10126,20.20056 -0.22441,20.3237 -0.12314,0.12315 -1.87544,-1.13838 -3.89399,-2.80338 l -3.67011,-3.02728 0,-6.30689 0,-6.3069 -4.22838,0 c -3.8641,0 -4.36425,0.13018 -5.80558,1.51106 -1.38276,1.32476 -2.00813,1.51106 -5.07243,1.51106 -3.91088,0 -5.65969,-0.92029 -7.84181,-4.12669 -1.35372,-1.98914 -1.27602,-4.61467 0.2066,-6.98087 0.53599,-0.85544 0.76254,-3.10004 0.76254,-7.55531 l 0,-6.33831 -1.92317,0 -1.92317,0 0,20.33063 c 0,11.18185 -0.18545,20.32789 -0.41211,20.32454 -0.22665,-0.003 -1.27753,-0.66783 -2.33527,-1.47663 z m 142.31442,-18.63323 0,-7.47799 -4.03327,0.20367 c -3.28132,0.1657 -4.46341,0.48833 -6.34043,1.73049 -4.65412,3.07995 -5.96241,8.30926 -2.85601,11.41566 1.57276,1.57276 1.72704,1.60617 7.41794,1.60617 l 5.81177,0 0,-7.478 z m 44.30687,4.63564 c 2.93966,-0.54166 3.50506,-0.82653 3.54443,-1.7858 0.0722,-1.7593 0.0845,-19.59549 0.0149,-21.60935 l -0.0617,-1.7858 -5.78996,0 -5.78997,0 0.34026,9.20373 c 0.18714,5.06206 0.11501,10.73915 -0.1603,12.61577 -0.42831,2.91959 -0.37534,3.4457 0.36705,3.64523 1.66218,0.44675 4.06086,0.35642 7.53534,-0.28378 z m -158.46062,-10.312 c 0.22666,-0.0182 0.41211,-3.379 0.41211,-7.46845 l 0,-7.43537 -6.45635,0.1548 -6.45635,0.15481 -0.0523,7.1432 c -0.0287,3.92875 0.0541,7.33906 0.18412,7.57846 0.17856,0.32882 7.6427,0.2519 12.36873,-0.12745 z m 80.73471,-22.16756 c -0.60159,-0.72487 -6.59966,-3.66441 -13.03858,-6.38996 -10.16828,-4.30416 -19.72923,-5.39747 -25.24907,-2.88726 -3.98457,1.81204 -7.12644,5.14021 -8.19642,8.68246 l -0.35432,1.173 23.70309,0.053 c 18.85499,0.0421 23.58695,-0.087 23.1353,-0.63119 z m -65.73032,30.25436 c -1.08245,-1.54541 -1.09589,-3.38989 -0.0312,-4.27355 0.93193,-0.77343 1.10758,-3.05687 0.27473,-3.57159 -0.83409,-0.51551 -0.65652,-3.38606 0.26657,-4.30915 0.44882,-0.44882 1.25243,-0.73266 1.7858,-0.63076 0.53337,0.1019 1.12521,0.20419 1.3152,0.22732 0.18999,0.0231 0.64523,0.76579 1.01165,1.65038 0.52396,1.26497 0.52103,2.00979 -0.0137,3.48865 -0.424,1.17256 -0.51338,2.48028 -0.23746,3.47431 0.52375,1.88686 0.37615,3.52897 -0.40259,4.47876 -0.89236,1.08839 -3.03439,0.8 -3.96902,-0.53437 z M 635.97082,713.19125 c -3.24151,-1.60654 -8.58059,-6.18627 -10.77836,-9.24541 -1.10191,-1.53377 -2.00347,-2.92044 -2.00347,-3.08148 0,-0.61923 2.21147,0.93816 5.16422,3.63681 2.93919,2.68626 3.07792,2.74952 3.07792,1.40355 0,-2.82955 4.39683,-3.52806 8.24974,-1.3106 2.40612,1.38478 3.15241,1.04492 4.654,-2.11945 l 0.91648,-1.93134 2.01889,1.49164 c 3.47812,2.56979 5.59048,4.79513 5.59048,5.8895 0,1.51031 -3.6984,4.6883 -6.30095,5.41433 -3.78331,1.05544 -8.28834,0.99266 -10.58895,-0.14755 z"
         id="path4775"
         inkscape:connector-curvature="0" />
      <path
         style="fill-opacity:1"
         d="m 629.4887,751.25736 c -5.05153,-1.87912 -9.89414,-5.10478 -15.36608,-10.23531 l -3.29686,-3.09116 5.71259,3.73083 5.71259,3.73084 5.64876,0 c 4.87307,0 5.86178,-0.158 7.20011,-1.15061 2.05391,-1.52335 4.00371,-5.01659 4.01496,-7.19313 0.0228,-4.40741 -2.23974,-6.20064 -6.4771,-5.13366 -2.87652,0.72432 -4.36021,-0.022 -8.56464,-4.30846 l -2.68755,-2.73996 1.86334,-0.83479 c 4.53201,-2.0304 7.17168,-6.40905 5.47727,-9.08565 -0.66443,-1.04956 -3.20248,-0.002 -5.30062,2.18815 -0.84757,0.88468 -1.7595,1.6085 -2.02651,1.6085 -0.69693,0 -5.90588,-4.4741 -6.49881,-5.582 -0.27437,-0.51266 -0.35402,-1.30952 -0.17701,-1.7708 0.49569,-1.29174 3.93118,-3.08924 6.60471,-3.45569 2.00333,-0.27459 2.76633,-0.0917 4.55495,1.09198 3.58262,2.37087 7.97437,7.0812 9.35846,10.03734 l 1.30793,2.79347 2.79837,-1.36721 c 3.39352,-1.65798 10.03904,-2.2535 13.26531,-1.18873 5.35967,1.76885 13.36499,8.24259 15.61692,12.62908 3.89844,7.59374 2.94799,12.20459 -3.3463,16.2335 -1.09389,0.70019 -2.84048,1.43282 -3.8813,1.62809 -1.64347,0.30831 -2.24925,0.0709 -4.60484,-1.80513 -1.49183,-1.18808 -3.18345,-2.69054 -3.75916,-3.3388 -1.03577,-1.16629 -1.03373,-1.17865 0.19438,-1.17865 0.68262,0 2.9242,-0.88443 4.98128,-1.96539 4.23554,-2.22572 5.21638,-3.75631 5.00642,-7.81247 -0.29431,-5.68556 -3.28213,-8.36619 -9.29856,-8.34255 -3.0763,0.0121 -4.19996,0.42795 -10.98269,4.06472 l -1.80481,0.96771 1.89683,2.09956 c 2.50066,2.76793 2.87095,3.53005 3.58077,7.36986 0.77543,4.19466 0.12464,6.62611 -2.59322,9.68876 l -2.09275,2.35823 -4.63525,0.19435 c -3.54556,0.14866 -5.28564,-0.0476 -7.40189,-0.83482 z m 69.19838,-2.77192 c -1.17864,-0.86772 -2.88477,-2.36706 -3.79141,-3.33186 -1.71549,-1.82555 -1.80492,-2.41394 -1.90543,-12.53634 l -0.0177,-1.7858 -4.08404,0 c -3.64687,0 -4.12267,0.12169 -4.44488,1.13686 -0.48634,1.53235 -3.43523,3.25437 -5.57728,3.25689 -1.36741,0.002 -2.16661,-0.49285 -3.70897,-2.29475 -1.08129,-1.26325 -2.00469,-2.80865 -2.05198,-3.43423 -0.0473,-0.62558 -0.13401,-1.81245 -0.19267,-2.6375 -0.15204,-2.13823 0.847,-2.34625 11.2682,-2.34625 l 9.06636,0 0.15288,-7.55531 0.15287,-7.5553 -8.48305,0 -8.48305,0 -2.65935,-2.1182 c -1.46265,-1.16501 -3.13039,-2.6486 -3.70611,-3.29686 l -1.04674,-1.17866 40.89652,0 40.89651,0 1.28404,-3.77161 c 1.615,-4.74374 5.73135,-10.34112 8.92487,-12.13598 2.94342,-1.6543 9.60388,-2.15556 14.51431,-1.09235 1.80105,0.38997 3.5219,0.76115 3.82412,0.82485 2.49372,0.52558 6.89178,2.06434 7.74422,2.70949 0.57607,0.43598 1.39078,0.80056 1.81046,0.81017 1.62313,0.0372 10.12642,4.56157 16.00249,8.51456 l 6.15537,4.14087 46.63979,0 46.63979,0 1.38058,2.18699 c 0.75932,1.20284 1.38059,2.68643 1.38059,3.29686 0,1.03563 -0.3492,1.10987 -5.22003,1.10987 -4.59548,0 -5.22306,0.11505 -5.24538,0.96159 -0.014,0.52887 -0.0486,9.54417 -0.077,20.03399 -0.0586,21.6341 0.39539,20.14994 -4.7492,15.52451 -1.61135,-1.44874 -2.84109,-3.02691 -2.84109,-3.64607 0,-0.92952 -0.24731,-1.03738 -1.66483,-0.72604 -5.98904,1.31541 -11.32028,0.30976 -15.51537,-2.92673 -5.1676,-3.98677 -5.0307,-3.64787 -3.6185,-8.95808 0.97585,-3.6694 1.23107,-6.16346 1.25822,-12.29576 l 0.0341,-7.69267 -2.87796,-0.16585 -2.87794,-0.16585 -0.14418,20.19617 -0.14416,20.19618 -3.5716,-3.03351 -3.5716,-3.0335 -0.1452,-17.13419 -0.1452,-17.13419 -3.7051,0 -3.7051,0 0.0329,19.78116 c 0.0181,10.87963 -0.0884,19.78115 -0.23658,19.78115 -0.14819,0 -1.68572,-1.11269 -3.41672,-2.47264 l -3.14728,-2.47265 -5.34362,0 c -6.37248,0 -8.42733,-0.82244 -13.4809,-5.39566 -4.13237,-3.73958 -4.89579,-5.22316 -4.89579,-9.51417 0,-4.34101 1.34438,-7.21942 4.94481,-10.5872 l 2.70079,-2.52627 7.71621,0 7.71621,0 0,-3.29686 0,-3.29686 -13.00126,0 -13.00128,0 0.37437,20.10118 0.37436,20.10118 -1.52211,-1.08439 c -0.83717,-0.59642 -2.57616,-2.03857 -3.86442,-3.20478 l -2.34231,-2.12038 -10e-4,-9.06636 c -5.5e-4,-4.9865 -0.15691,-12.58988 -0.34724,-16.89641 l -0.34615,-7.83004 -8.21953,0 -8.21953,0 1.69507,1.93059 c 3.19044,3.63371 3.6388,4.99247 3.6388,11.02754 0,6.03086 -0.45035,7.30357 -5.09034,14.38577 l -1.89487,2.89221 4.72893,4.67599 c 2.60091,2.5718 4.72892,4.80611 4.72892,4.96514 0,0.53644 -1.54036,-0.57661 -4.02105,-2.90558 -1.35674,-1.27374 -3.39715,-2.94726 -4.53425,-3.71892 -2.03855,-1.3834 -2.08347,-1.38841 -3.21243,-0.35838 -2.05771,1.8774 -4.6067,2.82162 -7.6172,2.82162 -2.3871,0 -3.4509,-0.32834 -5.53378,-1.70799 -2.61502,-1.73211 -5.30419,-5.48987 -5.30044,-7.40665 0.003,-1.6834 2.06597,-4.59875 3.70716,-5.23964 1.62851,-0.63592 5.6589,0.0808 8.47601,1.50739 1.4084,0.7132 1.56057,0.64221 3.60711,-1.68278 3.16271,-3.59304 5.08777,-8.95011 5.08777,-14.15832 0,-2.31498 -0.24585,-4.8557 -0.54634,-5.64604 -0.51336,-1.35024 -0.73723,-1.42702 -3.70896,-1.27209 l -3.16263,0.16488 -0.1668,2.59328 c -0.20791,3.23268 -1.91789,4.82465 -5.18228,4.82465 -2.99796,0 -5.91519,-2.81827 -5.91519,-5.71455 l 0,-1.97812 -5.70545,0 c -5.48721,0 -5.71361,0.0473 -5.91887,1.23632 -0.11738,0.67998 -0.18874,9.70513 -0.15857,20.0559 0.0382,13.12339 -0.12444,18.81862 -0.53748,18.81643 -0.32578,-0.002 -2.0141,-1.26415 -3.75182,-2.80538 l -3.15949,-2.80224 0,-17.22364 0,-17.22365 -8.51768,-0.16424 -8.51767,-0.16424 5.5e-4,20.19327 c 4.3e-4,11.10629 -0.16132,20.19326 -0.35945,20.19326 -0.55878,0 -4.02355,-2.7448 -5.76495,-4.56701 -1.52636,-1.59744 -1.56724,-1.79576 -1.56724,-7.60297 l 0,-5.96275 -4.47017,0 c -4.06238,0 -4.58632,0.12532 -5.74327,1.37369 -1.10245,1.18956 -1.74447,1.3737 -4.78967,1.3737 -3.89685,0 -6.6449,-1.34007 -7.92143,-3.86284 -0.97323,-1.92336 -0.87266,-5.47895 0.18814,-6.65112 0.68158,-0.75313 0.88853,-2.11982 0.88019,-5.81277 -0.0204,-9.02725 0.13248,-8.39972 -2.04602,-8.39972 l -1.92317,0 -0.0556,8.37952 c -0.17732,26.72383 -0.22449,32.28013 -0.27406,32.28089 -0.0302,4.7e-4 -1.01927,-0.7091 -2.19791,-1.57682 z m 142.64408,-18.47822 c 0,-4.07986 -0.18544,-7.42727 -0.4121,-7.43868 -0.22666,-0.0114 -1.33318,-0.15439 -2.45893,-0.31772 -3.48168,-0.50514 -7.64673,1.07746 -10.24013,3.89097 -2.09844,2.27653 -2.27418,2.7037 -2.27418,5.52782 0,2.60391 0.21697,3.26171 1.45393,4.40809 1.36582,1.2658 1.83198,1.34746 7.69267,1.34746 l 6.23874,0 0,-7.41794 z m 46.2934,4.20538 1.51106,-0.60658 0,-12.10208 0,-12.10209 -6.35852,0 -6.35851,0 0.30026,2.88475 c 0.76494,7.3492 0.90452,15.3671 0.3233,18.57235 -0.50133,2.76466 -0.48122,3.52763 0.1035,3.92761 0.92972,0.63597 8.49741,0.22146 10.47891,-0.57396 z m -160.70637,-17.25545 0.15287,-7.5553 -6.60922,0 -6.60923,0 0,7.71011 0,7.71011 6.45635,-0.1548 6.45635,-0.15481 0.15288,-7.55531 z m 80.62017,-15.03514 c -1.467,-1.13625 -6.63363,-3.75314 -10.25726,-5.19529 -1.6116,-0.6414 -4.1665,-1.66521 -5.67756,-2.27515 -4.307,-1.7385 -11.00888,-3.18244 -14.77095,-3.18244 -5.69063,0 -8.94127,1.27066 -12.42814,4.85811 -1.66217,1.71011 -3.30972,3.91291 -3.66124,4.8951 l -0.63911,1.78579 24.2666,-0.0175 c 22.0207,-0.0159 24.1649,-0.0963 23.16766,-0.86865 z m -198.15638,35.09104 c -0.68347,-0.8715 -0.66404,-0.89094 0.20746,-0.20746 0.52887,0.41477 0.96159,0.84748 0.96159,0.96158 0,0.45224 -0.45123,0.16117 -1.16905,-0.75412 z m 132.62845,-4.09637 c -1.30062,-1.56715 -1.36259,-3.60352 -0.1592,-5.2312 1.11507,-1.50821 1.09588,-3.44776 -0.0341,-3.44776 -0.74251,0 -0.58739,-2.4051 0.22694,-3.51876 1.01178,-1.38369 3.18736,-0.92291 4.20155,0.88986 0.75962,1.35775 0.74585,1.64282 -0.15286,3.16422 -0.85585,1.44884 -0.89539,1.92732 -0.29617,3.58443 0.93969,2.59868 0.14303,4.88663 -1.77991,5.11176 -0.77584,0.0908 -1.67865,-0.15781 -2.00625,-0.55255 z M 635.55221,712.90766 c -4.13918,-2.29465 -8.50666,-6.31557 -10.94029,-10.07216 l -1.58412,-2.44528 2.41587,1.85326 c 1.32873,1.01929 3.36912,2.73783 4.53421,3.81897 l 2.11834,1.96571 -0.36781,-1.74759 c -0.29697,-1.411 -0.15631,-1.86078 0.73029,-2.33528 1.80672,-0.96693 4.50293,-0.67117 6.94889,0.76226 l 2.3035,1.34994 1.37319,-1.48731 c 0.75526,-0.81802 1.5332,-1.94058 1.72877,-2.49459 0.19557,-0.554 0.63966,-0.91258 0.98688,-0.79684 0.99589,0.33197 6.3954,5.01795 6.75835,5.86525 0.47466,1.10812 -1.0402,3.13885 -3.61017,4.83957 -1.91552,1.26764 -2.92171,1.50641 -6.99248,1.65932 -3.66003,0.13748 -5.13459,-0.0318 -6.40342,-0.73523 z"
         id="path4773"
         inkscape:connector-curvature="0" />
    </g>
    <g
       id="g4826"
       transform="matrix(3.00073,0,0,3.00073,-1959.5302,-1464.8146)">
      <path
         sodipodi:nodetypes="ccccccc"
         inkscape:connector-curvature="0"
         id="rect4822"
         transform="translate(0,308.26772)"
         d="m 776.38281,199.01172 c -41.94795,7.9e-4 -75.95313,41.39236 -75.95312,92.45117 1.57347,53.14011 0.6875,108.34644 0.6875,162.29688 l 151.2207,0 c 0,-55.81771 0,-111.63542 0,-167.45313 l -0.14844,0 c -2.24714,-48.96596 -35.51539,-87.27592 -75.80664,-87.29492 z"
         style="opacity:1;fill:none;fill-opacity:1;stroke:#000000;stroke-width:10;stroke-linecap:round;stroke-linejoin:miter;stroke-miterlimit:4;stroke-dasharray:none;stroke-dashoffset:0;stroke-opacity:1" />
    </g>
    <rect
       ry="5.3569031"
       y="323.35419"
       x="210.1353"
       height="10.713806"
       width="320.10519"
       id="rect4838"
       style="opacity:1;fill:#000000;fill-opacity:1;stroke:#000000;stroke-width:19.29349518;stroke-linecap:round;stroke-linejoin:miter;stroke-miterlimit:4;stroke-dasharray:none;stroke-dashoffset:0;stroke-opacity:1" />
    <rect
       style="opacity:1;fill:#000000;fill-opacity:1;stroke:#000000;stroke-width:19.29349518;stroke-linecap:round;stroke-linejoin:miter;stroke-miterlimit:4;stroke-dasharray:none;stroke-dashoffset:0;stroke-opacity:1"
       id="rect4842"
       width="320.10519"
       height="10.713806"
       x="210.1353"
       y="377.36734"
       ry="5.3569031" />
    <rect
       ry="5.3569031"
       y="431.38046"
       x="210.1353"
       height="10.713806"
       width="320.10519"
       id="rect4844"
       style="opacity:1;fill:#000000;fill-opacity:1;stroke:#000000;stroke-width:19.29349518;stroke-linecap:round;stroke-linejoin:miter;stroke-miterlimit:4;stroke-dasharray:none;stroke-dashoffset:0;stroke-opacity:1" />
    <ellipse
       style="opacity:1;fill:#d10000;fill-opacity:1;stroke:none;stroke-width:10;stroke-linecap:round;stroke-linejoin:miter;stroke-miterlimit:4;stroke-dasharray:none;stroke-dashoffset:0;stroke-opacity:1"
       id="path4840"
       cx="370.18793"
       cy="483.71906"
       rx="38.158268"
       ry="40.620098" />
  </g>
</svg>
